<svg version="1.1" xmlns="http://www.w3.org/2000/svg" width="700" height="700" viewBox="370 19.5 700 700" style="background-color: transparent;">
  <defs>
    <!-- 1. Filtro de Brilho Neon (Glow) intenso para o verde -->
    <filter id="neonFilter" x="-50%" y="-50%" width="200%" height="200%">
      <feGaussianBlur stdDeviation="3.5" result="coloredBlur"/>
      <feSpecularLighting surfaceScale="5" specularConstant=".75" specularExponent="20" lighting-color="#adfb16" result="specular">
        <fePointLight x="-5000" y="-10000" z="20000"/>
      </feSpecularLighting>
      <feComposite in="specular" in2="SourceAlpha" operator="in" result="specular"/>
      <feComposite in="SourceGraphic" in2="coloredBlur" operator="over"/>
      <feMerge>
        <feMergeNode in="coloredBlur"/>
        <feMergeNode in="SourceGraphic"/>
      </feMerge>
    </filter>

    <!-- 2. Gradiente para o efeito de "Loading Bar" que passa por cima -->
    <linearGradient id="scanGradient" x1="0%" y1="0%" x2="100%" y2="0%">
      <stop offset="0%" stop-color="transparent" />
      <stop offset="50%" stop-color="white" stop-opacity="0.5" />
      <stop offset="100%" stop-color="transparent" />
    </linearGradient>
    
    <!-- Máscara para o efeito de scan -->
    <mask id="scanMask">
      <rect x="0" y="0" width="100%" height="100%" fill="url(#scanGradient)">
        <animate attributeName="x" from="-100%" to="200%" dur="2s" repeatCount="indefinite" />
      </rect>
    </mask>
  </defs>

  <style>
    /* RESET BÁSICO */
    .part {
      vector-effect: non-scaling-stroke;
      stroke-linecap: round;
      stroke-linejoin: round;
    }

    /* CLASSE 1: ESTRUTURA VERDE (B, Arma, Folhas) */
    .green-shape {
      fill: #adfb16;
      stroke: #adfb16;
      stroke-width: 2;
      fill-opacity: 0; /* Começa invisivel (só traço) */
      
      /* O Segredo do Desenho de Linha */
      stroke-dasharray: 2000;
      stroke-dashoffset: 2000;
      
      filter: url(#neonFilter);
      animation: 
        drawLine 2s cubic-bezier(0.77, 0, 0.175, 1) forwards,
        fillUp 0.8s ease-out 1.8s forwards,
        floatMain 3s ease-in-out 3s infinite alternate;
    }

    /* CLASSE 2: DESTAQUES BRANCOS (Highlights 3D) */
    .white-highlight {
      fill: #ffffff;
      opacity: 0;
      animation: glitchIn 0.5s linear 2.2s forwards;
    }

    /* CLASSE ESPECÍFICA: ARMA (Animação de Recoil) */
    #gun-part {
      transform-origin: 530px 320px; /* Pivô aproximado da arma */
      animation: 
        drawLine 2s cubic-bezier(0.77, 0, 0.175, 1) forwards,
        fillUp 0.8s ease-out 1.8s forwards,
        gunRecoil 4s ease-in-out 3s infinite; /* Arma se mexe diferente do resto */
    }

    /* CLASSE ESPECÍFICA: FOLHAS (Crescimento orgânico) */
    .leaf {
      transform-origin: center;
      transform: scale(0);
      animation: popIn 0.8s cubic-bezier(0.175, 0.885, 0.32, 1.275) 2.5s forwards;
      fill: #adfb16; /* Garante a cor, removendo delay do fill genérico */
      opacity: 0; /* Usa opacidade no lugar de fill-opacity para o pop */
    }
    
    /* Efeito de Opacidade separado para as folhas não bugarem o stroke */
    @keyframes popIn {
      0% { transform: scale(0.5); opacity: 0; }
      100% { transform: scale(1); opacity: 1; filter: url(#neonFilter); }
    }

    /* KEYFRAMES COMPLEXOS */

    /* 1. O traço desenhando */
    @keyframes drawLine {
      0% { stroke-dashoffset: 2000; }
      100% { stroke-dashoffset: 0; }
    }

    /* 2. O preenchimento líquido enchendo */
    @keyframes fillUp {
      0% { fill-opacity: 0; stroke-width: 3; }
      50% { fill-opacity: 0.5; stroke-width: 5; stroke: #ccff33; }
      100% { fill-opacity: 1; stroke-width: 0; }
    }

    /* 3. O efeito Glitch/Piscada para o branco entrar */
    @keyframes glitchIn {
      0% { opacity: 0; transform: translateX(-5px); }
      20% { opacity: 1; transform: translateX(5px); }
      40% { opacity: 0; transform: translateX(-2px); }
      60% { opacity: 1; transform: translateX(2px); }
      80% { opacity: 0; }
      100% { opacity: 1; transform: translateX(0); }
    }

    /* 4. Flutuação suave do logotipo principal (Idle) */
    @keyframes floatMain {
      from { transform: translateY(0); filter: drop-shadow(0 0 10px #adfb16); }
      to { transform: translateY(-15px); filter: drop-shadow(0 0 30px #adfb16); }
    }

    /* 5. Movimento independente da arma (Gangster Lean) */
    @keyframes gunRecoil {
      0%, 100% { transform: rotate(0deg) translateX(0); }
      10% { transform: rotate(-5deg) translateX(-5px); } /* Recuo rápido */
      40% { transform: rotate(2deg) translateX(0); } /* Ajuste lento */
    }

  </style>

  <!-- GRUPO PRINCIPAL -->
  <g id="MainStage">
    
    <!-- Camada de Trás: A Arma (separada pelo ID do Path-1-8 no seu original) -->
    <!-- Movi a arma para o topo do código SVG (mas no fundo visual) para o stroke desenhar certo -->
    <path id="gun-part" class="green-shape part" d="M498.43036,285.6212c2.58807,-0.12888 5.30505,-0.07275 7.89948,-0.18588c11.01463,-0.48026 12.8655,-1.1039 12.58389,10.50968c5.75979,-0.31863 23.97671,-0.66275 30.25037,0.80441c1.19023,0.27864 1.69562,8.47718 0.77975,9.96945c-2.54469,2.04784 -17.69072,1.17449 -21.79233,1.14685l-33.45141,0.06636c0.33094,14.23824 -0.06891,28.21231 0.40839,42.6543c11.16776,1.51057 30.83613,-0.21736 42.15066,2.33923c0.96137,0.33393 1.3217,2.05379 1.44079,2.83863c1.09367,7.21376 -1.07027,7.02489 -6.94407,8.13006c-0.67977,6.43189 -0.78783,10.60244 0.44963,16.89224c4.10843,10.90913 10.7326,9.30543 19.30465,12.49585c1.53735,0.57427 1.06135,9.01828 -0.19312,9.66912c-8.71966,4.53041 -22.10625,-0.89333 -27.3139,-8.8141c-6.59184,-9.43091 -6.69395,-19.66706 -4.95239,-30.67406c-9.07273,-0.33477 -20.63354,1.03072 -29.35152,-1.12559c-2.40091,-5.26379 -1.91042,-10.94273 -1.88194,-16.69488c-2.33412,-2.66805 -5.02302,-4.02334 -6.87687,-7.03467c-0.42837,-4.38025 -1.18132,-39.86672 0.5445,-42.14427c3.30614,-1.43611 10.11663,-0.8861 13.97238,-0.82227c-0.05744,-3.90466 -1.10303,-8.38402 2.97306,-10.02051z" />

    <!-- Camada Principal: O corpo do Graffiti "B" (Verde Principal e Bordas) -->
    <!-- Combinação dos shapes verdes principais -->
    <path class="green-shape part" d="M685.43322,235.72166c26.65835,-39.41326 86.33211,-46.16549 124.50238,-20.24177c15.99043,10.74238 26.89317,27.55848 30.17295,46.54197c5.21102,28.54284 -6.57227,63.57035 -36.84305,72.17216c-5.34716,2.58935 -8.92895,2.64336 -13.72734,4.41344c26.07642,3.15258 45.66566,9.71634 62.81313,30.93013c22.99235,28.44542 20.06567,74.21318 -9.49471,96.94602c-3.64135,2.80332 -9.82225,6.71265 -14.22506,8.05688c-7.58045,3.73068 -11.46853,4.83243 -19.87424,6.55101c2.60338,-9.13737 3.22021,-14.89716 5.24932,-23.45176c-1.23789,1.86321 -2.05464,3.60732 -3.18191,5.44076c-19.78491,32.18928 -59.86519,47.20983 -95.21936,32.09144c-3.33931,-1.42932 -6.44467,-2.93946 -9.69761,-4.56445c-6.28004,27.10586 -39.49408,44.35119 -65.7092,38.66371c-4.3445,-0.94438 -9.0438,-3.24998 -12.87273,-5.46625c-7.19419,16.52215 -26.07346,24.12813 -42.5501,27.19522c13.6142,-12.08534 24.76239,-22.64779 28.41266,-41.4713c1.0069,-5.194 0.93032,-9.78824 1.39697,-14.91845c-8.9685,2.31838 -18.46661,1.41654 -26.83788,-2.55235c-22.49678,-7.28268 -22.27939,-38.35746 -10.73431,-55.04551c13.48486,-19.49137 27.71886,-30.85356 50.80266,-36.59209c-0.92777,-0.34456 -0.56108,-0.26801 -1.38378,-0.3871c-5.7381,-0.81251 -9.96179,-2.6587 -14.95248,-5.40672c-7.45114,-3.34358 -13.29558,-9.47345 -16.2797,-17.07432c-9.64487,-24.31404 8.31086,-44.80552 29.7352,-54.06582c2.20692,-0.95373 4.51891,-1.7909 6.76965,-2.63997c-3.68387,-0.37944 -8.53502,1.04094 -12.2206,-0.21609c-19.2051,-6.54889 -21.6728,-33.19363 -16.63192,-49.57711c4.09353,-15.24939 13.51166,-28.1281 27.22115,-36.09861c12.6558,-7.31415 27.71971,-9.23692 41.80694,-5.33694c4.49466,1.22726 9.68658,3.48947 13.55293,6.10391zM640.40734,434.52399c24.14474,-8.03986 45.90175,-8.45249 64.4058,11.47704c4.53465,-0.3871 9.07784,-1.52715 13.54869,-2.3354c13.49337,-2.44174 23.60065,-4.81117 36.17946,-10.4816c10.5752,-6.87005 18.01527,-11.88116 21.02704,-25.03423c4.4198,-19.31699 -8.0739,-36.43681 -27.4079,-39.39709c-17.70475,-3.04496 -32.96775,0.00256 -50.06675,4.21605c-4.21945,1.02775 -11.82032,2.74547 -15.705,4.44277c-1.45993,7.88206 -1.07198,16.95139 -1.95468,24.96573c-0.27777,2.52683 -0.19439,6.43616 -2.72549,7.77612c-3.78681,1.99934 -7.96288,3.17767 -11.93985,4.75588c-11.47532,4.56018 -22.19517,12.48946 -30.67023,21.43116c1.44079,-0.49772 3.92339,-1.45058 5.30889,-1.81642zM687.13136,318.58811c-0.3986,5.61857 -0.74188,10.90233 -1.62159,16.48004c5.43097,-1.78366 11.88412,-2.29584 17.22193,-3.92339c24.43569,-5.17487 59.58144,-14.84994 61.97213,-44.69192c2.09718,-26.21552 -26.14022,-29.86495 -45.6061,-29.33363c-7.30396,0.37987 -17.34912,1.99339 -24.59692,3.57073c0.12293,4.88052 -1.82066,32.97243 -4.21774,36.19816c-3.41377,2.00443 -7.38222,3.19553 -11.03548,4.86391c-6.08945,2.78162 -12.14278,5.62748 -18.19779,8.48484c8.21344,-0.30797 17.9098,0.67808 24.27278,6.56887c0.62236,0.57386 1.22555,1.16854 1.80876,1.78239z" />
    <path class="green-shape part" d="M747.87966,165.65219c1.48037,-0.29011 8.35466,-0.35734 10.13704,-0.33776c18.78948,0.1425 37.30673,4.4768 54.20748,12.68684c59.47809,29.42339 86.9583,100.8375 56.96828,161.10126c1.55692,1.1711 2.982,2.48768 4.356,3.8753c42.06261,42.38376 48.08187,118.57117 3.90509,161.78234c-14.98649,14.65895 -36.65589,24.30681 -57.29582,26.96975c-6.02777,0.77847 -12.88507,0.53599 -18.98942,0.51046c-2.51832,1.6973 -4.90474,3.58603 -7.52516,5.26634c-22.58399,14.4888 -46.59726,19.18936 -72.71196,13.65077c-3.1734,3.16916 -8.07817,6.23622 -12.03004,8.31638c-21.89739,11.52809 -48.30563,13.69758 -71.86672,6.55952c-2.19798,0.91459 -4.41596,1.77812 -6.6514,2.59063c-5.00217,1.79514 -10.17151,3.07984 -15.4306,3.84126c-8.08368,1.24213 -31.7639,2.3354 -38.71604,-0.94862c0.70018,-1.3485 8.51928,-2.53107 10.39695,-2.93946c18.05143,-3.93913 31.69159,-9.32456 47.74794,-18.30454c8.35553,0.85078 12.90592,3.03302 22.85876,3.14364c24.65988,0.26801 41.5283,-5.19827 59.32665,-21.81826c2.22905,0.41687 4.4581,0.81675 6.68712,1.19961c21.66513,3.70088 40.32701,0.81251 59.83967,-10.05623c4.59421,-2.56086 8.89065,-6.22771 13.24241,-9.31179c6.25751,0.46368 11.76203,0.59979 18.03229,-0.08082c22.32024,-2.21203 42.81553,-13.30621 56.86618,-30.78975c21.77148,-27.18244 22.40106,-71.03594 7.24864,-101.19184c-8.90343,-17.72644 -19.066,-28.864 -34.39707,-40.94213c16.75613,-20.64716 19.9338,-49.31677 15.61607,-74.83298c-5.29611,-21.79784 -13.65927,-37.64577 -30.40689,-52.93939c-38.45102,-35.32272 -102.59563,-37.08978 -141.79026,-2.10229c-11.07248,9.88437 -7.31459,5.23994 -21.77242,3.40822c-16.43878,-2.12654 -33.98572,0.92736 -48.44301,9.26117c-16.79016,9.82907 -29.018,25.89266 -34.02144,44.69407c-5.08638,19.52924 -1.99679,38.91174 8.2092,56.15833c-10.31146,11.7731 -16.71657,21.24951 -16.51024,37.92694c0.18888,15.24982 6.91131,24.41316 17.46226,34.55447c-5.28121,5.06213 -10.79895,8.83112 -16.60553,14.79509c-16.80419,16.85823 -29.76755,34.71187 -30.05467,59.50359c-0.26119,22.5627 19.34336,47.8479 43.00057,47.72454c-6.3919,23.37094 -17.23256,33.2953 -40.57968,40.19514c2.42388,-3.40311 5.59856,-6.98066 8.17728,-10.50289c3.96335,-5.41523 6.81432,-10.11152 10.17875,-15.89259c-0.32754,-0.13611 -0.65424,-0.27649 -0.97966,-0.41687c-16.1827,-7.20186 -28.82912,-20.55485 -35.14276,-37.10679c-6.41235,-16.75186 -5.4114,-37.33226 2.07932,-53.54813c8.15175,-17.64095 23.65849,-34.80543 42.0762,-41.80735c-23.04,-23.10932 -21.46351,-51.66535 -3.09302,-76.92673c-11.02358,-23.71254 -13.71587,-48.06869 -2.67444,-72.58264c17.85575,-39.64256 62.19887,-63.22448 105.05907,-53.67491c17.50141,-17.99529 48.95987,-29.27067 73.70907,-30.66085z" />

    <!-- Camada Intermediária: Brilhos Brancos Internos -->
    <!-- Todos os Path-1 a Path-1-4 com preenchimento branco -->
    <g class="white-group">
        <path class="white-highlight part" d="M685.43322,235.72166c26.65835,-39.41326 86.33211,-46.16549 124.50238,-20.24177c15.99043,10.74238 26.89317,27.55848 30.17295,46.54197c5.21102,28.54284 -6.57227,63.57035 -36.84305,72.17216c4.56445,-4.35939 9.47345,-8.00838 13.40404,-13.20965c11.6642,-15.42891 15.32681,-34.00187 13.18711,-53.0049c-4.57719,-40.66137 -46.12507,-61.03925 -83.64025,-56.31105c-23.97073,3.14448 -45.71628,15.65734 -60.48157,34.79904c-25.16483,-17.62094 -56.04008,-10.55351 -74.88145,12.7128c-2.36644,2.92157 -5.6628,9.95072 -8.00115,11.87308c4.09353,-15.24939 13.51166,-28.1281 27.22115,-36.09861c12.6558,-7.31415 27.71971,-9.23692 41.80694,-5.33694c4.49466,1.22726 9.68658,3.48947 13.55293,6.10391z"/>
        <path class="white-highlight part" d="M763.75523,341.19634c8.79708,-1.93 17.04963,-1.77472 25.78291,-2.58891c26.07642,3.15258 45.66566,9.71634 62.81313,30.93013c22.99235,28.44542 20.06567,74.21318 -9.49471,96.94602c-3.64135,2.80332 -9.82225,6.71265 -14.22506,8.05688c0.59555,-1.62499 7.42732,-7.12104 9.0353,-9.00977c20.38897,-23.95798 23.14123,-61.46466 4.43682,-87.14503c-19.27444,-26.47163 -48.29883,-32.23609 -78.34838,-37.10679z"/>
        <path class="white-highlight part" d="M627.81581,400.42045c4.8554,0.97839 6.65056,1.36976 11.64123,1.22514c-6.28811,2.88413 -12.67961,5.05789 -18.72907,8.58863c-16.6485,9.71167 -34.14312,26.95273 -41.22757,45.18072c-3.03517,7.80592 -3.0424,17.63244 0.56491,25.17034c2.38346,4.98131 4.66867,7.24013 7.68212,11.47277c-22.49678,-7.28268 -22.27939,-38.35746 -10.73431,-55.04551c13.48486,-19.49137 27.71886,-30.85356 50.80266,-36.59209z"/>
        <path class="white-highlight part" d="M631.70473,320.84652c5.33142,-1.32849 10.29656,-1.42888 15.75518,-1.49524c-12.59624,6.32726 -21.70129,10.55307 -32.69251,19.92784c-18.92518,16.14144 -17.46226,35.13896 -3.60944,54.22026c0.33904,0.45941 0.24504,0.4424 0.32159,1.12727c-7.45114,-3.34358 -13.29558,-9.47345 -16.2797,-17.07432c-9.64487,-24.31404 8.31086,-44.80552 29.7352,-54.06582c2.20692,-0.95373 4.51891,-1.7909 6.76965,-2.63997z"/>
        <path class="white-highlight part" d="M640.40734,434.52399c24.14474,-8.03986 45.90175,-8.45249 64.4058,11.47704c4.53465,-0.3871 9.07784,-1.52715 13.54869,-2.3354c13.49337,-2.44174 23.60065,-4.81117 36.17946,-10.4816l0.48921,0.51046c-2.59914,4.01995 -49.09557,20.09119 -55.82779,23.03062c-14.16082,-15.73093 -26.26869,-20.94198 -47.83047,-22.46486c-3.01005,-0.21269 -9.68826,0.3871 -10.96486,0.26374z"/>
    </g>

    <!-- Camada Externa: As Folhas (Efeito de Pop/Crescimento) -->
    <!-- Folha Direita -->
    <path class="leaf part" d="M947.82587,286.14784c2.9522,3.53245 3.94764,24.6888 4.06673,30.14486c0.72315,32.83417 -5.24506,61.13073 -21.38861,89.81523c20.63993,-14.88014 44.41075,-24.83302 69.49601,-29.08946c-14.51857,36.97196 -32.34668,58.1011 -65.6675,79.72369c17.62817,-3.19042 35.78809,-1.6973 52.65483,4.33474c3.16489,1.12727 7.94203,2.9437 10.66029,4.73886c-3.86255,2.99051 -7.79741,5.04088 -12.06832,7.32098c-19.33825,9.71167 -35.21382,12.247 -56.64071,10.94955c4.09226,4.07524 8.36317,8.71623 12.37036,12.9191c3.73919,3.91784 10.49011,9.88181 13.31898,14.17825c-16.15207,-1.80791 -33.79301,-7.98033 -46.90355,-17.77282c4.59421,-6.54674 7.78039,-13.37001 10.43058,-20.88666c13.80816,-39.20397 4.49214,-84.53355 -18.781,-117.93054c2.85013,-5.43521 5.29611,-10.66412 8.31211,-16.12314c11.47277,-20.75351 23.94097,-35.45883 40.13984,-52.32258z" />
    
    <!-- Folha Esquerda -->
    <path class="leaf part" d="M442.94413,377.41492c1.45952,0.12124 2.91561,0.27777 4.36706,0.47007c25.95988,3.50733 61.70331,21.71874 77.63203,42.48627c-16.71402,28.44161 -20.46979,49.14958 -8.24152,80.53489c-10.08898,5.78105 -22.86814,9.55 -34.39748,10.76236c4.92518,-7.47411 10.24339,-15.20345 16.35497,-21.75873c1.71092,-1.87598 3.44141,-3.73068 5.19104,-5.56412c-22.62098,2.34814 -45.67713,-4.76012 -63.85023,-18.22799c17.83746,-9.62234 44.33162,-13.7784 64.08293,-9.48196c-24.17154,-16.0287 -40.64436,-34.29924 -53.65575,-60.39691c-2.65783,-5.33438 -6.22855,-13.2041 -7.48305,-18.82395z" />

  </g>

  <!-- Camada Final: Overlay de Scanner (Cyberpunk Look) -->
  <rect x="0" y="0" width="100%" height="100%" fill="white" mask="url(#scanMask)" opacity="0.3" style="pointer-events: none;" />
  
</svg>
